<?xml version="1.0" encoding="UTF-8"?>
<svg version="1.1" xmlns="http://www.w3.org/2000/svg" width="2286" height="2286">
<path d="M0 0 C0.84920484 0.00291284 1.69840967 0.00582568 2.57334799 0.00882679 C3.46850038 0.00797237 4.36365277 0.00711794 5.28593099 0.00623763 C8.30932304 0.00458007 11.33266057 0.01010867 14.35604757 0.01555592 C16.51380309 0.01583776 18.67155871 0.01568012 20.82931417 0.01511341 C26.707175 0.01482531 32.58501562 0.02072412 38.46287173 0.02768737 C44.598156 0.03391876 50.73344068 0.03452454 56.86872762 0.03571278 C68.49576088 0.03882673 80.12278479 0.04704097 91.74981391 0.05706227 C104.98295773 0.06822143 118.21610198 0.07373336 131.44924933 0.0787577 C158.6791736 0.08922354 185.90908955 0.10682421 213.13900656 0.12908131 C213.13900656 0.78908131 213.13900656 1.44908131 213.13900656 2.12908131 C213.64560812 2.22189381 214.15220968 2.31470631 214.67416281 2.41033131 C233.38377192 7.86606519 252.04001037 22.31238403 264.13900656 37.12908131 C264.93177999 38.03529225 265.72455343 38.94150318 266.54135031 39.87517506 C282.61093938 58.45790288 289.80081476 79.26902643 294.13900656 103.12908131 C329.44900656 103.12908131 364.75900656 103.12908131 401.13900656 103.12908131 C401.13900656 121.27908131 401.13900656 139.42908131 401.13900656 158.12908131 C403.11900656 157.79908131 405.09900656 157.46908131 407.13900656 157.12908131 C409.76250571 157.04341403 412.35784372 157.00223479 414.98031515 157.01555592 C416.12279714 157.01533688 416.12279714 157.01533688 417.28835958 157.01511341 C419.7880841 157.01580613 422.28773267 157.02356832 424.78744406 157.03142506 C426.5276475 157.03329152 428.26785147 157.03471435 430.00805563 157.03571278 C434.57499559 157.03952 439.14190344 157.04933489 443.70883077 157.06041676 C448.3743537 157.07066954 453.03988184 157.07521867 457.70541281 157.08025318 C466.84995811 157.09095884 475.99447966 157.10801361 485.13900656 157.12908131 C485.28514821 164.46747194 485.42701249 171.80593739 485.56625265 179.14446217 C485.61382939 181.627553 485.66229525 184.11062699 485.71176046 186.59368092 C485.78375367 190.21611449 485.85226497 193.8386019 485.92025656 197.46111256 C485.94213033 198.52481571 485.96400411 199.58851887 485.98654073 200.68445545 C486.22003687 213.50295889 486.13900656 226.30104105 486.13900656 239.12908131 C508.24900656 239.12908131 530.35900656 239.12908131 553.13900656 239.12908131 C553.2747153 292.871795 553.38210229 346.61446749 553.44539853 400.35731864 C553.45290255 406.70571898 553.4606685 413.05411898 553.4685964 419.40251881 C553.47017026 420.66634251 553.47174412 421.9301662 553.47336568 423.23228759 C553.4994559 443.68162211 553.54675368 464.13085518 553.60192333 484.58012956 C553.65808162 505.57131085 553.69136967 526.56243908 553.70353752 547.5536924 C553.71176003 560.50088156 553.73770682 573.44778391 553.78650536 586.39488477 C553.81828176 595.27963845 553.82779338 604.1642444 553.82001482 613.04905075 C553.81618122 618.17110346 553.82195461 623.29265585 553.8542394 628.41461903 C553.88363855 633.1133274 553.88478379 637.81120346 553.86439992 642.50995177 C553.86188419 644.20068629 553.86932569 645.89147476 553.88830565 647.58210462 C554.11082638 668.64509663 545.65072525 685.1224602 532.13900656 701.12908131 C531.68267843 701.7310735 531.22635031 702.33306568 530.75619406 702.95330006 C525.93674179 709.14355461 519.42031578 713.54006656 513.13900656 718.12908131 C512.38619406 718.69884693 511.63338156 719.26861256 510.85775656 719.85564381 C499.99058619 727.67164711 486.95615565 731.81077645 474.13900656 735.12908131 C473.0752844 735.47094749 472.01156224 735.81281366 470.91560608 736.16503942 C466.95728126 737.17546981 463.60959078 737.37864722 459.52982038 737.37797028 C458.79196298 737.38057756 458.05410558 737.38318485 457.29388887 737.38587114 C454.82480515 737.3921599 452.35597692 737.38421398 449.88690084 737.37631947 C448.09570898 737.37790832 446.30451773 737.38037267 444.51332814 737.38363588 C439.59008334 737.39005142 434.66692076 737.38397832 429.74368137 737.3758716 C424.42726754 737.3692906 419.11086284 737.37424553 413.79444784 737.37775379 C403.34801529 737.38280638 392.90161433 737.37713158 382.4551857 737.36790349 C370.18032616 737.35745996 357.90547327 737.35759169 345.63061012 737.35807607 C322.91900014 737.35859297 300.20740567 737.34854573 277.49580118 737.33357363 C257.03832681 737.32013562 236.58086091 737.31377996 216.12338156 737.31438404 C6.95203989 737.31916689 6.95203989 737.31916689 -82.82839864 736.33023578 C-102.46348768 736.1143437 -122.09807364 736.02318484 -141.73420054 735.96834713 C-146.73283695 735.95422441 -151.73145363 735.93630137 -156.73007303 735.91715199 C-157.52242578 735.91414965 -158.31477853 735.91114731 -159.13114196 735.90805399 C-162.27726399 735.89612548 -165.42338586 735.88415564 -168.56950718 735.87204236 C-177.33586335 735.83859929 -186.10214537 735.81309201 -194.8685618 735.80315357 C-202.20126402 735.79476386 -209.53377721 735.77241488 -216.86638451 735.73379791 C-220.64559306 735.71441235 -224.4245226 735.70151204 -228.20378405 735.7066322 C-232.30081589 735.71214421 -236.39710884 735.68691398 -240.49405009 735.65911061 C-241.67905604 735.66571202 -242.86406199 735.67231343 -244.08497721 735.67911488 C-254.98264841 735.55758134 -264.3223654 732.29184743 -273.92349344 727.31658131 C-274.60266825 726.96893727 -275.28184305 726.62129322 -275.98159891 726.26311451 C-303.51237291 711.96340243 -326.40982786 689.73558761 -336.07290751 659.59709889 C-337.04056062 656.45151371 -337.95489114 653.29295093 -338.86099344 650.12908131 C-339.35599344 648.64408131 -339.35599344 648.64408131 -339.86099344 647.12908131 C-340.00336574 644.39483603 -340.09450659 641.68152091 -340.14224344 638.94548756 C-340.16065287 638.13474278 -340.17906229 637.323998 -340.19802958 636.48868519 C-340.25674027 633.88972411 -340.30945911 631.29069392 -340.36099344 628.69158131 C-340.41284155 626.12461558 -340.46617801 623.55772192 -340.52395731 620.99088246 C-340.55979605 619.3957939 -340.59238099 617.80062707 -340.62088114 616.20539051 C-340.71396582 612.02821556 -340.96283548 607.90584714 -341.36489779 603.74660164 C-341.96562485 596.64323977 -342.0004715 589.56978058 -341.98797709 582.44577748 C-341.98913169 580.99672914 -341.99072149 579.54768109 -341.99270433 578.09863365 C-341.99685074 574.14870124 -341.99482834 570.19879323 -341.99171811 566.24886078 C-341.98944512 561.97691261 -341.99295298 557.70496848 -341.99569803 553.43302113 C-342.00013386 545.07828013 -341.99918917 536.72354814 -341.99628539 528.3688068 C-341.99402352 521.579011 -341.99372224 514.78921772 -341.99480921 507.99942166 C-341.99496244 507.03169216 -341.99511568 506.06396267 -341.99527355 505.06690804 C-341.99559329 503.10081656 -341.9959175 501.13472509 -341.99624614 499.16863362 C-341.99909433 480.75457389 -341.99582389 462.34051915 -341.99044578 443.92646024 C-341.98597479 428.12900787 -341.98675738 412.33156285 -341.99136454 396.53411061 C-341.99671586 378.17646953 -341.99882343 359.81883281 -341.99575227 341.46119106 C-341.99543373 339.50401475 -341.99511936 337.54683844 -341.99480921 335.58966213 C-341.99465493 334.62674838 -341.99450066 333.66383462 -341.99434171 332.67174166 C-341.9934785 325.8881539 -341.99493515 319.1045689 -341.99728876 312.32098156 C-342.00009299 304.0573194 -341.99933516 295.79366673 -341.99400802 287.53000566 C-341.99137999 283.31447005 -341.99035082 279.09895029 -341.99365717 274.8834148 C-341.99663835 271.02415085 -341.99499691 267.16491742 -341.98967962 263.30565623 C-341.98856327 261.91020678 -341.98912928 260.51475474 -341.99155541 259.11930694 C-342.00187507 252.6902433 -341.99585627 246.46536498 -340.86099344 240.12908131 C-340.69117599 237.81577546 -340.54899895 235.50031155 -340.43130594 233.18376881 C-340.36016581 231.87013355 -340.28902567 230.5564983 -340.21572977 229.20305592 C-340.17880015 228.517748 -340.14187052 227.83244007 -340.10382181 227.12636524 C-338.87889474 205.06340134 -335.89855293 185.16090146 -328.86099344 164.12908131 C-328.20099344 164.12908131 -327.54099344 164.12908131 -326.86099344 164.12908131 C-326.76947001 163.26798756 -326.67794657 162.40689381 -326.58364969 161.51970631 C-323.88213923 148.84451126 -311.75934484 135.85641883 -301.86099344 128.12908131 C-301.14685282 127.56705006 -300.43271219 127.00501881 -299.69693094 126.42595631 C-274.92723192 108.03507609 -242.96221103 102.4918544 -212.66934305 104.60832936 C-200.83605684 105.35788914 -188.99114579 105.36050197 -177.13833719 105.44548756 C-174.69640389 105.46610653 -172.25447376 105.4871041 -169.81254679 105.50846058 C-163.44234922 105.56317165 -157.07212223 105.61280167 -150.70187479 105.66130787 C-144.17871642 105.7118995 -137.65559979 105.76738725 -131.13247782 105.82244068 C-118.3753524 105.92939707 -105.61819113 106.0311427 -92.86099344 106.12908131 C-92.65725611 105.30289295 -92.45351877 104.4767046 -92.24360758 103.62548023 C-91.97514521 102.54288929 -91.70668284 101.46029835 -91.43008524 100.34490162 C-91.16447291 99.27121327 -90.89886057 98.19752491 -90.62519938 97.09130055 C-86.92054266 82.73128982 -79.56878532 68.77622582 -71.40396219 56.46111256 C-69.79386806 54.08877219 -69.79386806 54.08877219 -68.28677469 51.32830006 C-67.81626688 50.60255787 -67.34575907 49.87681568 -66.86099344 49.12908131 C-66.20099344 49.12908131 -65.54099344 49.12908131 -64.86099344 49.12908131 C-64.63025126 48.40720631 -64.39950907 47.68533131 -64.16177469 46.94158131 C-62.6117316 43.59013679 -60.70763889 41.68058519 -58.04849344 39.12908131 C-57.19642313 38.30408131 -56.34435282 37.47908131 -55.46646219 36.62908131 C-54.60665751 35.80408131 -53.74685282 34.97908131 -52.86099344 34.12908131 C-52.02954813 33.297636 -51.19810282 32.46619068 -50.34146219 31.60955006 C-38.13905857 19.40714644 -25.02314462 10.47898594 -9.71255594 2.62517506 C-5.88012394 0.61446073 -4.52747497 0.0117858 0 0 Z M316.13900656 142.12908131 C316.13900656 159.94908131 316.13900656 177.76908131 316.13900656 196.12908131 C333.95900656 196.12908131 351.77900656 196.12908131 370.13900656 196.12908131 C370.13900656 178.30908131 370.13900656 160.48908131 370.13900656 142.12908131 C352.31900656 142.12908131 334.49900656 142.12908131 316.13900656 142.12908131 Z M2.24349874 166.48796803 C0.05336883 167.15517002 -2.14623378 167.77386252 -4.35318094 168.38298756 C-12.57819654 170.670556 -20.18097786 173.35799673 -27.86099344 177.12908131 C-29.29182131 177.78722097 -30.72426076 178.44186279 -32.15786844 179.09392506 C-40.49184086 182.91198557 -48.62368293 186.95178259 -56.54849344 191.56658131 C-57.2853538 191.9915691 -58.02221415 192.41655689 -58.7814036 192.85442311 C-60.5122546 193.88522715 -62.19304783 194.99932045 -63.86099344 196.12908131 C-63.86099344 196.78908131 -63.86099344 197.44908131 -63.86099344 198.12908131 C-64.58286844 198.39720631 -65.30474344 198.66533131 -66.04849344 198.94158131 C-68.85865728 200.12809493 -71.34515901 201.4039377 -73.86099344 203.12908131 C-73.86099344 203.78908131 -73.86099344 204.44908131 -73.86099344 205.12908131 C-75.18099344 205.45908131 -76.50099344 205.78908131 -77.86099344 206.12908131 C-77.86099344 206.78908131 -77.86099344 207.44908131 -77.86099344 208.12908131 C-78.40884501 208.36884693 -78.95669657 208.60861256 -79.52114969 208.85564381 C-82.42107284 210.43389914 -84.76471353 212.38849808 -87.29849344 214.50408131 C-92.82011443 219.09647261 -92.82011443 219.09647261 -95.56411844 221.28533131 C-97.84164913 223.11355322 -99.90684301 224.95780305 -101.86099344 227.12908131 C-101.86099344 227.78908131 -101.86099344 228.44908131 -101.86099344 229.12908131 C-103.34599344 229.62408131 -103.34599344 229.62408131 -104.86099344 230.12908131 C-106.74850247 231.91679 -106.74850247 231.91679 -108.54849344 234.06658131 C-109.17111063 234.77685475 -109.79372782 235.48712818 -110.43521219 236.21892506 C-112.0603811 237.99893947 -112.0603811 237.99893947 -111.86099344 240.12908131 C-112.52099344 240.12908131 -113.18099344 240.12908131 -113.86099344 240.12908131 C-115.67500827 242.21685293 -117.37189121 244.30974206 -119.04849344 246.50408131 C-119.54389628 247.14530934 -120.03929911 247.78653736 -120.54971415 248.44719654 C-126.86366802 256.66798711 -132.59060734 265.12118316 -137.95864969 273.99236256 C-139.08991967 275.8576804 -140.23764988 277.71341798 -141.41958719 279.54705006 C-146.53572452 287.60254 -150.148497 296.36599539 -153.86099344 305.12908131 C-154.15038798 305.80728932 -154.43978251 306.48549732 -154.73794657 307.18425709 C-158.47189828 315.99170466 -161.4482655 324.8694227 -163.86099344 334.12908131 C-164.12654032 335.12423756 -164.39208719 336.11939381 -164.66568094 337.14470631 C-165.44019785 340.13098798 -166.16285292 343.12404166 -166.86099344 346.12908131 C-167.11880594 347.23251881 -167.37661844 348.33595631 -167.64224344 349.47283131 C-175.34553406 384.90796814 -175.53183125 427.54722612 -163.86099344 462.12908131 C-163.47124401 463.45649125 -163.08890123 464.78609023 -162.71255594 466.11736256 C-159.89976086 476.16492333 -159.89976086 476.16492333 -155.93521219 485.79705006 C-154.53863164 488.82889948 -153.41344022 491.94321409 -152.23599344 495.06658131 C-148.66810905 504.23547233 -143.82699394 512.65789602 -138.86099344 521.12908131 C-138.46492899 521.80970631 -138.06886454 522.49033131 -137.66079813 523.19158131 C-134.43299391 528.77136006 -134.43299391 528.77136006 -130.86099344 534.12908131 C-130.20099344 534.12908131 -129.54099344 534.12908131 -128.86099344 534.12908131 C-128.53099344 535.44908131 -128.20099344 536.76908131 -127.86099344 538.12908131 C-127.20099344 538.12908131 -126.54099344 538.12908131 -125.86099344 538.12908131 C-125.47040751 539.22736256 -125.47040751 539.22736256 -125.07193094 540.34783131 C-119.68441315 552.72174314 -106.36150712 563.69683419 -96.92349344 573.19158131 C-96.392158 573.72758961 -95.86082255 574.26359791 -95.31338602 574.81584889 C-90.3049233 580.5100246 -90.3049233 580.5100246 -83.86099344 583.12908131 C-83.86099344 583.78908131 -83.86099344 584.44908131 -83.86099344 585.12908131 C-82.54099344 585.45908131 -81.22099344 585.78908131 -79.86099344 586.12908131 C-79.86099344 586.78908131 -79.86099344 587.44908131 -79.86099344 588.12908131 C-78.26966584 589.56233213 -78.26966584 589.56233213 -76.15396219 591.00017506 C-75.34926493 591.56921559 -74.54456766 592.13825611 -73.71548563 592.72454029 C-72.83537821 593.33241383 -71.95527079 593.94028736 -71.04849344 594.56658131 C-70.14647196 595.19185719 -69.24445048 595.81713307 -68.31509501 596.4613567 C-54.51657983 605.90605317 -40.35407134 613.84903637 -24.86099344 620.12908131 C-23.95091532 620.51580006 -23.04083719 620.90251881 -22.10318094 621.30095631 C-16.46140487 623.65925499 -10.70495623 625.47105574 -4.84146219 627.19939381 C-1.86099344 628.12908131 -1.86099344 628.12908131 0.47885031 629.12126881 C4.20015766 630.53110332 8.00241923 631.30269729 11.88900656 632.12908131 C13.42546489 632.46241464 14.96192322 632.79574798 16.49838156 633.12908131 C17.26754904 633.29295338 18.03671652 633.45682545 18.8291921 633.62566334 C20.34430914 633.9558791 21.85644379 634.30015826 23.36483663 634.65984303 C51.89761197 641.40709767 86.66094392 640.93497176 115.13900656 634.12908131 C116.93009104 633.73191546 118.72178934 633.33751026 120.51400656 632.94548756 C122.38906678 632.52778909 124.26406615 632.10981732 126.13900656 631.69158131 C127.07228781 631.4872649 128.00556906 631.2829485 128.96713156 631.07244068 C134.83249151 629.7576498 140.48475735 628.16736042 146.13900656 626.12908131 C146.84170675 625.87666676 147.54440695 625.62425221 148.26840109 625.36418873 C159.2803567 621.33119602 169.77386438 616.60326224 180.13900656 611.12908131 C181.14705343 610.60314381 182.15510031 610.07720631 183.19369406 609.53533131 C188.84508932 606.52552307 194.26143928 603.22869588 199.63119406 599.74236256 C201.37286716 598.62194045 203.15314166 597.56021051 204.95931906 596.54705006 C205.67861593 596.07912037 206.39791281 595.61119068 207.13900656 595.12908131 C207.13900656 594.46908131 207.13900656 593.80908131 207.13900656 593.12908131 C208.21601827 592.7616985 208.21601827 592.7616985 209.31478781 592.38689381 C212.48600199 590.97454116 214.68098501 589.24710844 217.32650656 587.00408131 C221.79349605 583.24939554 226.32646335 579.61387574 230.94760031 576.05095631 C233.34746284 573.94626403 235.17144579 571.63547614 237.13900656 569.12908131 C238.02588156 568.42783131 238.91275656 567.72658131 239.82650656 567.00408131 C244.68494868 563.11979383 248.28957152 557.96938944 252.13900656 553.12908131 C253.07209582 552.0004203 254.00857864 550.87453577 254.95150656 549.75408131 C255.67338156 548.88783131 256.39525656 548.02158131 257.13900656 547.12908131 C257.75775656 546.38658131 258.37650656 545.64408131 259.01400656 544.87908131 C264.87403416 537.29551617 270.10889991 529.28054877 275.13900656 521.12908131 C275.71650656 520.19322193 276.29400656 519.25736256 276.88900656 518.29314381 C291.55100243 493.87830246 300.80889644 466.21295462 305.75814718 438.25261647 C306.03368807 436.71629939 306.33821347 435.18508674 306.66049093 433.6578899 C308.66039207 423.00539156 308.44071161 412.30176757 308.39974874 401.50017506 C308.38903087 398.13671041 308.39968885 394.77377973 308.41244406 391.41033131 C308.42026691 380.78596478 308.32289985 370.55921068 306.13900656 360.12908131 C305.94613058 359.08703541 305.7532546 358.04498951 305.5545339 356.97136647 C304.96402897 353.78879997 304.33782142 350.61527559 303.70150656 347.44158131 C303.49719015 346.3916399 303.29287374 345.3416985 303.08236593 344.25994068 C301.78385531 337.75120675 300.16079738 331.4490603 298.13900656 325.12908131 C297.91906027 324.41204029 297.69911398 323.69499928 297.47250265 322.95622975 C292.09254891 305.53328332 283.89089347 288.50413419 274.13900656 273.12908131 C273.25535421 271.72335865 273.25535421 271.72335865 272.35385031 270.28923756 C270.62871357 267.5605181 268.88537464 264.84423753 267.13900656 262.12908131 C266.51445577 261.12554615 266.51445577 261.12554615 265.87728781 260.10173756 C265.0171343 258.74275897 264.08706029 257.42826605 263.13900656 256.12908131 C262.47900656 256.12908131 261.81900656 256.12908131 261.13900656 256.12908131 C260.89150656 255.40720631 260.64400656 254.68533131 260.38900656 253.94158131 C259.02223955 250.86635554 257.29953948 248.69471415 255.13900656 246.12908131 C254.47900656 245.13908131 253.81900656 244.14908131 253.13900656 243.12908131 C252.47900656 243.12908131 251.81900656 243.12908131 251.13900656 243.12908131 C250.91857687 242.59154225 250.69814718 242.05400318 250.47103781 241.50017506 C248.68849352 238.32714169 246.30309146 235.82603617 243.82650656 233.19158131 C243.35277609 232.67917897 242.87904562 232.16677662 242.39095968 231.63884693 C240.98462788 230.12477973 239.56456033 228.62504504 238.13900656 227.12908131 C236.78742452 225.70402272 236.78742452 225.70402272 235.40853781 224.25017506 C233.41321059 221.90147767 233.41321059 221.90147767 231.13900656 222.12908131 C231.13900656 221.46908131 231.13900656 220.80908131 231.13900656 220.12908131 C227.65902148 216.49274592 227.65902148 216.49274592 223.13900656 215.12908131 C223.13900656 214.46908131 223.13900656 213.80908131 223.13900656 213.12908131 C220.76046799 211.16708884 218.37424775 209.32247553 215.88900656 207.50408131 C215.15681906 206.96356129 214.42463156 206.42304127 213.67025656 205.86614186 C196.23525691 193.07374428 177.5598138 181.82785284 157.22885031 174.28533131 C154.47814787 173.25599133 151.78140933 172.14663224 149.07650656 171.00408131 C144.48245032 169.14547455 139.8231054 167.94840131 134.99838156 166.84001881 C131.98061963 166.08970095 129.08592024 165.11909022 126.13900656 164.12908131 C107.22559346 158.88603065 87.98911297 157.57262705 68.45150656 157.69158131 C67.40339803 157.69429035 66.35528951 157.6969994 65.27542013 157.69979054 C43.50791927 157.78497042 23.0973672 160.01590862 2.24349874 166.48796803 Z M411.13900656 243.12908131 C411.13900656 260.61908131 411.13900656 278.10908131 411.13900656 296.12908131 C428.95900656 296.12908131 446.77900656 296.12908131 465.13900656 296.12908131 C465.13900656 278.63908131 465.13900656 261.14908131 465.13900656 243.12908131 C447.31900656 243.12908131 429.49900656 243.12908131 411.13900656 243.12908131 Z " fill="#5A13D6" transform="translate(481.8609934449196,765.8709186911583)"/>
<path d="M0 0 C2.03983111 -0.01637258 4.07960952 -0.04340627 6.11914062 -0.08203125 C49.10829858 -0.88904287 86.87443036 16.80363894 117.79394531 46.07666016 C126.80836497 54.83928038 134.5700305 64.612452 141.10253906 75.35009766 C141.46444336 75.93984375 141.82634766 76.52958984 142.19921875 77.13720703 C151.89801612 93.09516007 158.17029804 110.11174293 162.10253906 128.35009766 C162.28945313 129.20587402 162.47636719 130.06165039 162.66894531 130.94335938 C164.45396164 140.1760376 164.50133924 149.35690903 164.47753906 158.72509766 C164.4766629 159.566362 164.47578674 160.40762634 164.47488403 161.27438354 C164.33851918 201.00468497 150.49499459 236.68448046 124.10253906 266.35009766 C122.91215553 267.78521074 121.72403654 269.22221143 120.54003906 270.66259766 C119.73566406 271.54947266 118.93128906 272.43634766 118.10253906 273.35009766 C117.44253906 273.35009766 116.78253906 273.35009766 116.10253906 273.35009766 C115.77253906 274.34009766 115.44253906 275.33009766 115.10253906 276.35009766 C111.63769412 279.58741994 107.83875264 282.433351 104.10253906 285.35009766 C102.68134766 286.47544922 102.68134766 286.47544922 101.23144531 287.62353516 C68.46527327 312.96507934 26.86258638 324.66525557 -14.39355469 319.61962891 C-26.28738739 317.96343559 -37.61534876 315.46876347 -48.89746094 311.35009766 C-49.99703125 310.97111328 -51.09660156 310.59212891 -52.22949219 310.20166016 C-92.32302023 295.75441547 -123.98334514 263.76410458 -142.37011719 225.86572266 C-144.99379089 219.82657603 -146.93852213 213.6332125 -148.89746094 207.35009766 C-149.43617314 205.86985242 -149.97737609 204.39050811 -150.52246094 202.91259766 C-160.02822129 174.39531659 -158.29061214 139.56160979 -148.89746094 111.35009766 C-148.48433625 110.01687715 -148.07159378 108.68353815 -147.65917969 107.35009766 C-135.70137818 69.99550223 -106.7672153 37.15577708 -72.51074219 18.50634766 C-64.79302047 14.6337867 -57.04077418 11.25919628 -48.89746094 8.35009766 C-48.14335937 8.07552734 -47.38925781 7.80095703 -46.61230469 7.51806641 C-31.00078879 2.06133094 -16.42938557 0.0959721 0 0 Z " fill="#5A13D6" transform="translate(544.8974609375,1002.64990234375)"/>
<path d="M0 0 C25.08 0 50.16 0 76 0 C80.29 7.92 84.58 15.84 89 24 C93.4092573 31.74383123 93.4092573 31.74383123 97.84375 39.47265625 C102.0704991 46.84398867 106.17653612 54.2822522 110.29467773 61.71459961 C114.48723777 69.28039804 118.70334908 76.83240983 122.9375 84.375 C134.0865668 104.25657931 145.07483609 124.22482599 155.90625 144.28125 C158.49484832 149.07277164 161.1019636 153.85392135 163.71557617 158.63183594 C167.81884917 166.13459064 171.91128372 173.64305601 175.9375 181.1875 C176.2787793 181.82163818 176.62005859 182.45577637 176.97167969 183.10913086 C178.99952558 186.93003519 180.84514813 190.80922315 182.62719727 194.7512207 C183.07289566 195.73588821 183.51859406 196.72055573 183.97779846 197.73506165 C184.31512497 198.4824913 184.65245148 199.22992096 185 200 C184.94006866 198.89447784 184.88013733 197.78895569 184.81838989 196.64993286 C182.76210973 157.62646022 182.75137392 118.6549513 182.85594678 79.59135175 C182.87882679 70.88430235 182.88942828 62.17724872 182.89935279 53.47017646 C182.9199254 35.6467429 182.95640562 17.82339314 183 0 C201.15 0 219.3 0 238 0 C238 91.41 238 182.82 238 277 C214.57 277 191.14 277 167 277 C164.04086116 272.26537786 161.18554447 267.65719541 158.50390625 262.7890625 C157.87009033 261.64002441 157.23627441 260.49098633 156.58325195 259.30712891 C155.90956727 258.07980787 155.23598586 256.85243015 154.5625 255.625 C153.85318142 254.33638576 153.1437889 253.04781222 152.43432617 251.75927734 C147.25436234 242.3392881 142.158652 232.87521666 137.0847168 223.39770508 C133.27900434 216.31167344 129.36256087 209.29757789 125.375 202.3125 C120.52816745 193.81629625 115.92433472 185.21987996 111.43554688 176.52978516 C108.16327037 170.20231454 104.80709843 163.92959248 101.375 157.6875 C89.82258396 136.63197947 78.6813606 115.35162248 67.6875 94 C67.33305817 93.31167084 66.97861633 92.62334167 66.61343384 91.91415405 C62.69524343 84.29942792 58.81037407 76.66939389 55 69 C54.95019454 77.16739812 54.97325999 85.32487503 55.21655273 93.48925781 C56.23834812 128.35146665 56.11899513 163.21235333 56.07202661 198.08573961 C56.06061619 206.71527971 56.05529283 215.34482084 56.05032361 223.97436666 C56.04001714 241.64958815 56.0217642 259.32478866 56 277 C37.52 277 19.04 277 0 277 C0 185.59 0 94.18 0 0 Z M53 64 C54 66 54 66 54 66 Z " fill="#191796" transform="translate(1142,1155)"/>
<path d="M0 0 C19.8 0 39.6 0 60 0 C60.33 39.93 60.66 79.86 61 121 C69.75803899 111.56117541 69.75803899 111.56117541 78.29296875 101.95703125 C80.33633431 99.6144085 82.41680859 97.30726578 84.5 95 C87.15113994 92.06321535 89.78290171 89.11397458 92.375 86.125 C95.82783819 82.158251 99.38877381 78.29317331 102.95043945 74.42456055 C106.08517052 71.01401194 109.15726302 67.55840884 112.19140625 64.05859375 C115.2777948 60.54557698 118.44628778 57.10700182 121.59765625 53.65234375 C123.56941844 51.47539004 125.51365337 49.28161326 127.4375 47.0625 C130.3988351 43.6531142 133.44152486 40.3220569 136.5 37 C140.14165281 33.04408354 143.73499436 29.05438449 147.2578125 24.9921875 C149.31500399 22.63979365 151.40596915 20.31965034 153.5 18 C160.51290263 10.55043688 160.51290263 10.55043688 166.65313721 2.41755676 C169 0 169 0 172.25238037 -0.60127258 C173.54033508 -0.59016953 174.82828979 -0.57906647 176.15527344 -0.56762695 C176.86786819 -0.56835709 177.58046295 -0.56908722 178.31465149 -0.56983948 C180.66367443 -0.56636345 183.01069975 -0.52750664 185.359375 -0.48828125 C186.99032508 -0.47895305 188.62128919 -0.47183697 190.2522583 -0.46684265 C194.54012899 -0.44777302 198.82714968 -0.39867346 203.11468506 -0.34332275 C207.49170432 -0.29212895 211.86886125 -0.26932839 216.24609375 -0.24414062 C224.83111877 -0.19055384 233.41545358 -0.10524255 242 0 C240.34699265 3.51084156 238.46260282 5.75749433 235.67578125 8.484375 C234.81146484 9.33773437 233.94714844 10.19109375 233.05664062 11.0703125 C232.15107422 11.95460938 231.24550781 12.83890625 230.3125 13.75 C223.21706216 20.6516617 223.21706216 20.6516617 216.54296875 27.953125 C211.55779832 33.77661378 205.99764384 39.05862326 200.54296875 44.43652344 C193.82951874 51.03623612 193.82951874 51.03623612 187.5 58 C182.53111252 63.80886608 176.98221783 69.07383215 171.54296875 74.43652344 C164.83881934 81.02479051 164.83881934 81.02479051 158.53125 87.98828125 C155.68583669 91.32009725 152.62188665 94.38074095 149.46875 97.41796875 C148.98349854 97.88824493 148.49824707 98.35852112 147.99829102 98.8430481 C145.98671672 100.79164684 143.97459045 102.73882195 141.93945312 104.6628418 C140.4353794 106.08844005 138.95100382 107.53224241 137.46875 108.98046875 C136.58638672 109.82504639 135.70402344 110.66962402 134.79492188 111.53979492 C132.72847193 113.84373375 132.72847193 113.84373375 133.07910156 116.60620117 C133.94665986 118.86134674 134.77321086 120.43769062 136.265625 122.3203125 C136.73685791 122.92818604 137.20809082 123.53605957 137.69360352 124.16235352 C138.20721436 124.81002686 138.7208252 125.4577002 139.25 126.125 C143.89660395 132.14109978 148.30937052 138.26213381 152.5625 144.5625 C156.88897696 150.95442565 161.31522099 157.24355456 165.91088867 163.44433594 C169.29857281 168.02165865 172.60211383 172.65249033 175.875 177.3125 C180.03960545 183.24069182 184.24836385 189.13390659 188.5 195 C193.21203379 201.50266261 197.86635273 208.04271908 202.48486328 214.61206055 C206.07395791 219.70904485 209.71433014 224.76674162 213.375 229.8125 C218.5948536 237.01281134 223.7252884 244.2717909 228.80859375 251.5690918 C231.70040477 255.71996412 234.60587628 259.85922862 237.55078125 263.97265625 C238.11079834 264.75697021 238.67081543 265.54128418 239.24780273 266.34936523 C240.30989124 267.83469561 241.37564946 269.31741074 242.44555664 270.79711914 C246 275.77749066 246 275.77749066 246 278 C236.74311197 278.51317548 227.49120581 278.90220273 218.22312832 279.13986778 C213.9171151 279.25404896 209.6209141 279.40825612 205.32055664 279.65966797 C177.62158169 281.23732984 177.62158169 281.23732984 169.99856567 275.89755249 C165.14740854 270.8145711 162.04787417 265.07526281 159.24147034 258.6804657 C157.44973083 254.81191069 155.07479164 251.48788741 152.5625 248.0625 C151.68530758 246.79538079 150.81123108 245.52609429 149.94140625 244.25390625 C145.61726565 237.99109667 141.26277135 231.74932483 136.91357422 225.50390625 C130.81448729 216.74236961 124.76301967 207.94896424 118.72753906 199.14355469 C112.68126274 190.32510903 106.60168854 181.5302113 100.5 172.75 C99.80495361 171.7489624 99.10990723 170.7479248 98.39379883 169.71655273 C97.73790771 168.77368408 97.0820166 167.83081543 96.40625 166.859375 C95.82166016 166.01858398 95.23707031 165.17779297 94.63476562 164.31152344 C93.55677091 162.7872621 92.44097763 161.28895159 91.28710938 159.82128906 C90 158 90 158 90 156 C87.48783483 157.89242398 85.0950085 159.84130307 82.73193359 161.92041016 C80.11286841 164.18529409 77.42773054 165.9796313 74.47265625 167.77734375 C67.99427522 172.24821485 62.36394794 177.45622516 60.42980194 185.31757355 C58.08070746 199.40421333 58.93472152 214.05945746 59.30047607 228.27435303 C59.44730449 234.87585945 59.45785077 241.47889027 59.49188232 248.08175659 C59.55824982 258.05944664 59.79490243 268.01987506 60 278 C40.2 278 20.4 278 0 278 C0 186.26 0 94.52 0 0 Z " fill="#6600FF" transform="translate(1526,858)"/>
<path d="M0 0 C65.01 0 130.02 0 197 0 C197 16.5 197 33 197 50 C151.46 50 105.92 50 59 50 C59 69.14 59 88.28 59 108 C102.89 108 146.78 108 192 108 C192 124.5 192 141 192 158 C148.11 158 104.22 158 59 158 C59 181.1 59 204.2 59 228 C107.18 228 155.36 228 205 228 C203.84814358 241.82227703 203.84814358 241.82227703 202.84375 248.50390625 C202.7365564 249.23447739 202.62936279 249.96504852 202.5189209 250.71775818 C202.29551061 252.23438833 202.07029284 253.75075334 201.84326172 255.2668457 C201.49599297 257.58929808 201.15582921 259.91271744 200.81640625 262.23632812 C200.59676792 263.72141542 200.37673083 265.2064438 200.15625 266.69140625 C200.05517944 267.38198624 199.95410889 268.07256622 199.84997559 268.78407288 C199.41905458 271.64089716 198.91617281 274.25148157 198 277 C132.66 277 67.32 277 0 277 C0 185.59 0 94.18 0 0 Z " fill="#191796" transform="translate(1445,1155)"/>
<path d="M0 0 C16.15200431 15.13212739 23.83792341 33.6253934 25.66015625 55.4921875 C5.53015625 55.4921875 -14.59984375 55.4921875 -35.33984375 55.4921875 C-37.31984375 49.5521875 -37.31984375 49.5521875 -39.33984375 43.4921875 C-44.8020797 32.69474434 -51.28423772 27.0781369 -62.76171875 23.21875 C-69.22966358 21.39596555 -75.34215166 21.27477832 -82.02734375 21.2421875 C-83.06568359 21.2215625 -84.10402344 21.2009375 -85.17382812 21.1796875 C-96.91209427 21.12081218 -106.5765028 23.98499504 -115.15234375 32.1796875 C-119.46880255 38.7160394 -121.07874419 45.73373286 -120.33984375 53.4921875 C-118.8949019 60.04483079 -116.36290025 65.71766577 -110.67602539 69.63964844 C-108.80406616 70.69451692 -106.90754566 71.63698117 -104.96484375 72.5546875 C-104.34996094 72.86728516 -103.73507812 73.17988281 -103.1015625 73.50195312 C-91.00393212 79.40703409 -77.80395109 82.50475066 -64.79754639 85.68453979 C-37.90443911 92.30214209 -8.96937252 99.88140089 11.66015625 119.4921875 C12.38074219 120.13542969 13.10132813 120.77867187 13.84375 121.44140625 C28.48291195 135.08433034 32.40873914 152.82437665 33.84375 171.9375 C34.48623132 191.81662788 28.43060717 211.69591353 15.28515625 226.7421875 C13.76268186 228.34398408 12.22146918 229.92822379 10.66015625 231.4921875 C9.97308594 232.19085937 9.28601562 232.88953125 8.578125 233.609375 C-5.63772961 247.16586715 -25.34819683 254.03690595 -44.33984375 257.4921875 C-45.79994873 257.76035278 -45.79994873 257.76035278 -47.28955078 258.03393555 C-56.71154178 259.57858063 -65.96654884 259.83214635 -75.49707031 259.80786133 C-78.07269991 259.80470849 -80.64716806 259.82823205 -83.22265625 259.85351562 C-97.93647627 259.91042917 -112.2949588 258.20341061 -126.40234375 253.8671875 C-127.22395996 253.61630371 -128.04557617 253.36541992 -128.89208984 253.10693359 C-141.64448927 248.99681833 -153.46190706 242.59115938 -163.33984375 233.4921875 C-164.2525 232.67105469 -165.16515625 231.84992188 -166.10546875 231.00390625 C-182.0491105 215.95328269 -190.37945937 196.05641572 -192.33984375 174.4921875 C-172.20984375 174.4921875 -152.07984375 174.4921875 -131.33984375 174.4921875 C-129.35984375 179.4421875 -127.37984375 184.3921875 -125.33984375 189.4921875 C-123.03327298 192.88913718 -121.10434863 195.5934241 -118.33984375 198.4921875 C-117.80746094 199.05292969 -117.27507812 199.61367187 -116.7265625 200.19140625 C-105.3600173 210.96114001 -88.74006668 213.02153077 -73.77734375 212.8671875 C-72.64876953 212.87878906 -71.52019531 212.89039063 -70.35742188 212.90234375 C-58.71182005 212.86216341 -46.45140641 211.01111994 -37.55859375 202.859375 C-31.31991728 196.03964532 -29.33984375 188.59530779 -29.33984375 179.4921875 C-29.95413275 172.89817899 -31.82335973 168.05050095 -35.33984375 162.4921875 C-35.66984375 161.5021875 -35.99984375 160.5121875 -36.33984375 159.4921875 C-38.18114047 158.41748736 -38.18114047 158.41748736 -40.33984375 157.4921875 C-41.69463772 156.59730314 -43.04873387 155.70136192 -44.40234375 154.8046875 C-57.37301728 147.11147999 -72.03955055 143.68188521 -86.52734375 140.0546875 C-156.54779372 122.51132032 -156.54779372 122.51132032 -173.65234375 94.33081055 C-184.78979031 75.05780732 -185.82788863 52.83934352 -180.33984375 31.4921875 C-174.12242751 11.92896203 -160.61939933 -3.02515155 -142.72583008 -12.65722656 C-130.37344838 -19.03361687 -117.13562952 -22.84613522 -103.33984375 -24.5078125 C-102.46070313 -24.61867188 -101.5815625 -24.72953125 -100.67578125 -24.84375 C-65.69878104 -28.48924016 -27.52946944 -23.52878395 0 0 Z " fill="#6600FF" transform="translate(1972.33984375,879.5078125)"/>
<path d="M0 0 C162.13513514 0 162.13513514 0 189.5 25.3125 C190.325 26.199375 191.15 27.08625 192 28 C192.66644531 28.6496875 193.33289062 29.299375 194.01953125 29.96875 C209.92602097 46.22751291 214.3125 67.78905395 214.3125 89.81420898 C214.03373743 112.61096816 206.72042353 131.98130639 190.6640625 148.38671875 C169.63687839 168.42719034 142.16023843 174.19924171 114.125 174.09765625 C112.76302125 174.09618335 111.40104193 174.09516478 110.0390625 174.09460449 C105.02603295 174.08939198 100.01301558 174.07543076 95 174.0625 C83.78 174.041875 72.56 174.02125 61 174 C61 207.99 61 241.98 61 277 C40.87 277 20.74 277 0 277 C0 185.59 0 94.18 0 0 Z M61 49 C61 74.41 61 99.82 61 126 C73.375 126.0928125 73.375 126.0928125 86 126.1875 C88.56910156 126.21481201 91.13820313 126.24212402 93.78515625 126.27026367 C110.96961889 126.37727866 127.94734307 126.43422949 142.3125 115.6875 C150.11208184 107.88791816 153.04244837 98.5415933 153.4375 87.625 C153.15923101 77.45003373 150.44546088 67.26264822 143 60 C134.36991746 52.76893474 123.42337349 48.86158897 112.19995117 48.88647461 C110.46497375 48.88665588 110.46497375 48.88665588 108.69494629 48.88684082 C107.4897937 48.89195679 106.28464111 48.89707275 105.04296875 48.90234375 C103.36974548 48.90385437 103.36974548 48.90385437 101.66271973 48.90539551 C97.50430266 48.91061912 93.34590028 48.92458039 89.1875 48.9375 C79.885625 48.958125 70.58375 48.97875 61 49 Z " fill="#6600FF" transform="translate(1142,858)"/>
<path d="M0 0 C75.24 0 150.48 0 228 0 C228 16.5 228 33 228 50 C200.28 50 172.56 50 144 50 C144 124.91 144 199.82 144 277 C124.2 277 104.4 277 84 277 C84 202.09 84 127.18 84 50 C56.28 50 28.56 50 0 50 C0 33.5 0 17 0 0 Z " fill="#191796" transform="translate(1674,1155)"/>
<path d="M0 0 C20.13 0 40.26 0 61 0 C61 75.24 61 150.48 61 228 C106.54 228 152.08 228 199 228 C195.44579646 256.43362832 195.44579646 256.43362832 194.375 264.3125 C194.25382812 265.22837891 194.13265625 266.14425781 194.0078125 267.08789062 C193.82992187 268.39983398 193.82992187 268.39983398 193.6484375 269.73828125 C193.54708496 270.49149658 193.44573242 271.24471191 193.34130859 272.02075195 C193 274 193 274 192 277 C128.00933373 278.14269047 64.00086805 278 0 278 C0 186.26 0 94.52 0 0 Z " fill="#6600FF" transform="translate(2048,858)"/>
<path d="M0 0 C20.13 0 40.26 0 61 0 C61 91.74 61 183.48 61 278 C30.805 277.505 30.805 277.505 0 277 C0 185.59 0 94.18 0 0 Z " fill="#6600FF" transform="translate(1400,858)"/>
<path d="M0 0 C17.82 0 35.64 0 54 0 C54 19.47 54 38.94 54 59 C36.18 59 18.36 59 0 59 C0 39.53 0 20.06 0 0 Z " fill="#5A13D6" transform="translate(893,787)"/>
<path d="M0 0 C17.49 0 34.98 0 53 0 C53 19.8 53 39.6 53 60 C35.51 60 18.02 60 0 60 C0 40.2 0 20.4 0 0 Z " fill="#5A13D6" transform="translate(982,839)"/>
</svg>
